<svg width="596" height="541" viewBox="0 0 596 541" fill="none" xmlns="http://www.w3.org/2000/svg">
<path d="M365.829 55.2258C373.218 53.3516 380.27 59.5754 379.249 67.1299C375.37 95.8383 362.688 124.157 342.298 148.094C319.73 174.302 289.466 193.022 256.498 201.55C288.01 166.814 304.026 131.35 304.026 95.8863C304.026 92.5582 303.818 89.2302 303.402 86.0062C322.077 71.3569 343.293 60.9419 365.829 55.2258Z" fill="#E87DB1"/>
<path d="M276.154 95.8864C276.154 103.478 275.218 110.966 273.346 118.558L255.666 157.35C249.218 167.438 241.21 177.422 231.538 187.406C227.066 153.086 212.09 119.286 187.962 91.2063C182.866 85.4864 177.666 79.9741 172.154 74.8782C177.335 51.328 191.816 27.3512 215.212 3.17956C219.321 -1.06604 226.292 -1.05671 230.401 3.18872C260.821 34.6148 276.154 65.6519 276.154 95.8864Z" fill="#E87DB1"/>
<path d="M203.874 192.086C179.226 176.382 149.898 166.71 119.218 164.422C118.49 163.694 117.866 162.966 117.138 162.238C88.993 136.006 71.1387 101.956 66.5094 67.0759C65.512 59.5607 72.5218 53.3291 79.869 55.1976C113.142 63.6593 143.838 82.6668 166.746 109.302C187.546 133.742 200.442 162.862 203.874 192.086Z" fill="#E87DB1"/>
<path d="M202.314 225.366C179.33 242.942 154.162 252.718 138.978 257.502C138.874 257.502 138.77 257.502 138.666 257.606C138.146 257.606 137.522 257.71 137.002 257.918C91.1336 271.651 42.0766 265.327 4.98101 242.191C-1.41417 238.202 -1.69222 228.857 4.38418 224.397C32.1407 204.028 66.2303 192.411 101.434 191.774C139.706 190.942 175.586 203.11 202.314 225.366Z" fill="#E87DB1"/>
<path d="M435.864 224.374C441.971 228.844 441.684 238.218 435.26 242.216C402.148 262.824 359.598 270.056 318.274 261.662L318.378 261.246C317.962 261.142 283.33 254.07 249.946 231.71C250.778 231.606 251.61 231.398 252.442 231.294L252.026 231.086C252.026 231.086 252.13 231.086 252.234 231.086C282.81 225.158 311.93 211.638 336.578 191.774C372.233 191.865 407.408 203.55 435.864 224.374Z" fill="#E87DB1"/>
<path d="M292.024 418.506L347.249 400.085C316.231 400.621 268.862 399.649 231.774 391.053L279.058 413.045C283.369 415.154 287.693 416.966 292.024 418.506Z" fill="#F2C7A5"/>
<path d="M209.563 425.283C219.593 430.361 230.285 433.76 241.215 435.453L278.613 422.976C277.45 422.447 276.279 421.904 275.116 421.336L153.749 364.881C151.138 363.612 148.4 362.983 145.676 362.983C142.529 362.983 139.408 363.823 136.551 365.496C131.222 368.61 127.949 373.933 127.585 380.096C127.506 381.359 127.572 382.615 127.757 383.845L209.563 425.283Z" fill="#F2C7A5"/>
<path d="M67.1494 403.715L67.1758 403.735L151.415 438.7C175.06 448.513 201.489 449.372 225.577 441.391C218.66 439.401 211.903 436.769 205.41 433.477L86.8338 373.418C84.2021 372.083 81.4052 371.421 78.6083 371.421C75.5534 371.421 72.5119 372.215 69.7017 373.802C64.326 376.83 60.9736 382.1 60.5042 388.263C60.0545 394.18 62.5407 399.959 67.1494 403.715Z" fill="#F2C7A5"/>
<path d="M585.452 325.552L532.825 352.338L531.08 347.405C531.02 347.234 524.19 328.885 502.773 315.191C474.195 296.915 432.559 295.097 382.366 309.915C316.502 329.361 267.268 325.208 234.683 322.458C213.577 320.679 198.329 319.39 191.168 325.685C187.082 329.275 184.966 335.755 184.51 346.083C184.219 352.682 186.652 358.415 191.962 363.592C206.938 378.218 243.821 387.396 298.623 390.133C340.669 392.236 378.537 389.71 378.914 389.684L414.792 387.244L240.462 445.391C211.296 458.847 177.574 459.501 147.898 447.19L25.7453 396.481C20.5614 394.325 14.5708 394.279 9.63811 396.957C3.07224 400.521 -0.531389 407.179 0.0637052 414.598C0.453823 419.412 4.41451 425.568 8.37519 428.325L142.946 521.986C175.015 544.309 216.764 547.192 251.597 529.491L251.974 529.299L405.759 483.98C419.129 480.039 432.995 478.042 446.933 478.042H595.092L585.452 325.552Z" fill="#F2C7A5"/>
</svg>
